#!OML:ASF H:\Dans Jumps\Project 1\Capture day 1\Session 1\subject.ASF
:FULLY-SPECIFIED
:DEGREES
349
root 0.290001 14.4774 -13.5833 37.6435 0.0736535 -1.89515
lowerback 27.7121 1.09202 -1.31687
upperback 2.52519 1.40389 2.92737
thorax -12.7132 0.806555 3.59603
lowerneck -22.2043 0.643095 -1.22795
upperneck -5.31505 1.22382 -3.18723
head 2.06915 0.503579 -0.73206
rclavicle -3.57812e-015 1.78906e-015
rhumerus -9.80283 -16.2562 -80.4721
rradius 25.7936
rwrist 27.4899
rhand -22.6137 -24.7773
rfingers 7.12502
rthumb 3.81615 -54.7229
lclavicle -3.57812e-015 1.78906e-015
lhumerus -7.06687 17.5096 83.6922
lradius 12.442
lwrist -5.54981
lhand -27.5712 -8.98737
lfingers 7.12502
lthumb -0.971757 20.9902
rfemur -76.2088 1.26335 21.8534
rtibia 79.0782
rfoot -36.7178 -19.5322
rtoes -2.99422
lfemur -76.4039 3.19384 -19.309
ltibia 78.557
lfoot -31.3143 23.3978
ltoes -20.5693
350
root 0.281619 14.5433 -13.4267 37.3221 0.115604 -1.91151
lowerback 27.2489 1.08623 -1.31479
upperback 2.33859 1.4074 2.96303
thorax -12.6863 0.812452 3.63424
lowerneck -22.3307 0.655166 -1.27716
upperneck -4.87171 1.26672 -3.08512
head 2.24706 0.521559 -0.686252
rclavicle 2.78299e-015 -6.16232e-015
rhumerus -8.52285 -15.4936 -80.8924
rradius 26.4059
rwrist 27.0375
rhand -22.7904 -24.8851
rfingers 7.12502
rthumb 3.64554 -54.8336
lclavicle 2.78299e-015 -6.16232e-015
lhumerus -5.97003 14.5839 84.3153
lradius 13.5234
lwrist -1.95152
lhand -27.804 -9.31855
lfingers 7.12502
lthumb -1.19658 20.6578
rfemur -74.6421 1.28411 21.9144
rtibia 78.2151
rfoot -36.8652 -19.8385
rtoes -4.19102
lfemur -74.8784 3.30711 -19.2525
ltibia 77.7466
lfoot -31.4127 23.5493
ltoes -21.6676
351
root 0.273175 14.618 -13.2599 36.942 0.16232 -1.91809
lowerback 26.7754 1.06768 -1.30662
upperback 2.14074 1.39491 2.98756
thorax -12.6636 0.810624 3.66208
lowerneck -22.4603 0.665935 -1.31968
upperneck -4.3595 1.30719 -2.96667
head 2.45094 0.537934 -0.636081
rclavicle -6.75868e-015 -5.36719e-015
rhumerus -7.37604 -14.6469 -81.2545
rradius 27.0534
rwrist 26.7466
rhand -22.8958 -24.9923
rfingers 7.12502
rthumb 3.54368 -54.9426
lclavicle -6.75868e-015 -5.36719e-015
lhumerus -5.035 11.7796 84.736
lradius 14.6462
lwrist 1.19809
lhand -28.036 -9.62975
lfingers 7.12502
lthumb -1.42072 20.3453
rfemur -72.8955 1.2862 21.9687
rtibia 77.2161
rfoot -36.9914 -20.1055
rtoes -5.50545
lfemur -73.1783 3.4267 -19.2055
ltibia 76.8038
lfoot -31.4495 23.6963
ltoes -22.7023
352
root 0.264537 14.7023 -13.0821 36.4882 0.228143 -1.89833
lowerback 26.3034 1.03127 -1.29201
upperback 1.93478 1.35988 3.0019
thorax -12.6472 0.798046 3.68271
lowerneck -22.5912 0.669371 -1.36393
upperneck -3.76769 1.33919 -2.83197
head 2.68464 0.549752 -0.580532
rclavicle 7.95139e-016 7.95139e-016
rhumerus -6.39668 -13.7097 -81.5523
rradius 27.7657
rwrist 26.5351
rhand -22.9555 -25.1031
rfingers 7.12502
rthumb 3.48611 -55.0544
lclavicle 7.95139e-016 7.95139e-016
lhumerus -4.24974 9.13011 84.989
lradius 15.7877
lwrist 3.85178
lhand -28.2602 -9.88455
lfingers 7.12502
lthumb -1.63725 20.0889
rfemur -70.9436 1.24368 22.0166
rtibia 76.0696
rfoot -37.0827 -20.3479
rtoes -6.93969
lfemur -71.2781 3.53331 -19.172
ltibia 75.7126
lfoot -31.4165 23.8317
ltoes -23.7001
